<svg width="264" height="264" viewBox="0 0 264 264" fill="none" xmlns="http://www.w3.org/2000/svg">
<path fill-rule="evenodd" clip-rule="evenodd" d="M39.4458 101.316C54.4615 74.2616 87.477 66.2765 118.011 60.4397C150.723 54.1865 191.147 42.9739 212.641 68.2086C233.564 92.7729 208.201 127.785 202.355 159.463C197.811 184.084 203.62 213.675 183.109 228.239C162.361 242.971 134.92 231.966 110.525 224.666C85.9051 217.3 60.1838 209.795 47.4151 187.636C32.2192 161.265 24.659 127.958 39.4458 101.316Z" fill="#F6F7F9"/>
<path d="M188.815 87.8786H52.98C50.38 87.8786 48.2651 89.9816 48.2651 92.5673V178.972C48.2651 181.558 50.3798 183.661 52.98 183.661L119.443 183.662V203.894H98.8689V206.783H142.925V203.894H122.351V183.661H188.814C191.414 183.661 193.529 181.558 193.529 178.972V92.5673C193.529 89.9817 191.414 87.8785 188.814 87.8785L188.815 87.8786ZM190.625 178.971C190.625 179.964 189.813 180.77 188.815 180.77H52.98C51.9829 180.77 51.1703 179.964 51.1703 178.971V92.5683C51.1703 91.5758 51.9819 90.7686 52.98 90.7686H188.812C189.811 90.7686 190.622 91.5758 190.622 92.5683L190.625 178.971Z" fill="#4286F5"/>
<path d="M64.6797 166.062H177.116V169.32H64.6797V166.062Z" fill="#4286F5"/>
<path d="M160.672 153.432L146.659 145.929L126.086 151.517L110.755 147.501L94.8754 155.364L88.1544 151.79L64.6797 155.557L65.1253 158.54L87.667 154.923L94.8296 158.732L111.06 150.693L126.101 154.632L146.314 149.141L160.939 156.971L177.936 144.063L176.218 141.63L160.672 153.432Z" fill="#4286F5"/>
<path d="M82.3252 139.187C92.508 139.187 100.79 130.783 100.79 120.454C100.79 110.125 92.5059 101.724 82.3252 101.724C72.1424 101.724 63.8584 110.127 63.8584 120.454C63.8584 130.783 72.1424 139.187 82.3252 139.187ZM97.9191 120.454C97.9191 129.178 90.9237 136.274 82.3252 136.274C74.2104 136.274 67.5293 129.953 66.8023 121.911H83.7599V104.71C91.6887 105.447 97.9191 112.222 97.9191 120.454Z" fill="#4286F5"/>
<path d="M155.681 129.414H177.116V126.475L173.234 126.474V102.538H160.939V126.474H155.682V112.158H143.245V126.474H139.363V129.413H143.245L155.681 129.414Z" fill="#4286F5"/>
</svg>
