<svg width="126" height="55" viewBox="0 0 126 55" fill="none" xmlns="http://www.w3.org/2000/svg">
<path d="M0.944 41V0.399997H8.368V35.2H26.348V41H0.944ZM45.2166 41.696C42.4326 41.696 39.9192 41.058 37.6766 39.782C35.4726 38.506 33.7132 36.7467 32.3986 34.504C31.1226 32.2227 30.4846 29.5933 30.4846 26.616C30.4846 23.6387 31.1419 21.0287 32.4566 18.786C33.7712 16.5047 35.5306 14.726 37.7346 13.45C39.9772 12.174 42.4906 11.536 45.2746 11.536C48.0199 11.536 50.4946 12.174 52.6986 13.45C54.9412 14.726 56.7006 16.5047 57.9766 18.786C59.2912 21.0287 59.9486 23.6387 59.9486 26.616C59.9486 29.5933 59.2912 32.2227 57.9766 34.504C56.7006 36.7467 54.9412 38.506 52.6986 39.782C50.4559 41.058 47.9619 41.696 45.2166 41.696ZM45.2166 35.258C47.1499 35.258 48.8319 34.5427 50.2626 33.112C51.6932 31.6427 52.4086 29.4773 52.4086 26.616C52.4086 23.7547 51.6932 21.6087 50.2626 20.178C48.8319 18.7087 47.1692 17.974 45.2746 17.974C43.3026 17.974 41.6012 18.7087 40.1706 20.178C38.7786 21.6087 38.0826 23.7547 38.0826 26.616C38.0826 29.4773 38.7786 31.6427 40.1706 33.112C41.6012 34.5427 43.2832 35.258 45.2166 35.258ZM76.9539 32.416C75.5619 32.416 74.2666 32.2613 73.0679 31.952L70.9219 34.098C71.5792 34.446 72.4686 34.736 73.5899 34.968C74.7112 35.2 76.5286 35.432 79.0419 35.664C82.8699 36.012 85.6539 36.9207 87.3939 38.39C89.1339 39.8593 90.0039 41.8893 90.0039 44.48C90.0039 46.1813 89.5399 47.786 88.6119 49.294C87.6839 50.8407 86.2532 52.078 84.3199 53.006C82.3866 53.9727 79.9119 54.456 76.8959 54.456C72.7972 54.456 69.4912 53.6827 66.9779 52.136C64.4646 50.628 63.2079 48.3467 63.2079 45.292C63.2079 42.7013 64.4646 40.4587 66.9779 38.564C66.2046 38.216 65.5279 37.8487 64.9479 37.462C64.4066 37.0753 63.9232 36.6693 63.4979 36.244V34.91L68.5439 29.574C66.3012 27.602 65.1799 25.0693 65.1799 21.976C65.1799 20.0427 65.6439 18.2833 66.5719 16.698C67.5386 15.1127 68.8919 13.856 70.6319 12.928C72.3719 12 74.4792 11.536 76.9539 11.536C78.5779 11.536 80.0859 11.768 81.4779 12.232H92.3819V16.756L87.4519 17.104C88.2252 18.5733 88.6119 20.1973 88.6119 21.976C88.6119 23.9093 88.1479 25.6687 87.2199 27.254C86.2919 28.8393 84.9386 30.096 83.1599 31.024C81.4199 31.952 79.3512 32.416 76.9539 32.416ZM76.9539 26.732C78.4619 26.732 79.6992 26.326 80.6659 25.514C81.6712 24.702 82.1739 23.542 82.1739 22.034C82.1739 20.526 81.6712 19.366 80.6659 18.554C79.6992 17.742 78.4619 17.336 76.9539 17.336C75.3686 17.336 74.0926 17.742 73.1259 18.554C72.1592 19.366 71.6759 20.526 71.6759 22.034C71.6759 23.542 72.1592 24.702 73.1259 25.514C74.0926 26.326 75.3686 26.732 76.9539 26.732ZM69.9939 44.538C69.9939 45.9687 70.6512 47.032 71.9659 47.728C73.3192 48.4627 74.9626 48.83 76.8959 48.83C78.7519 48.83 80.2599 48.4433 81.4199 47.67C82.5799 46.9353 83.1599 45.93 83.1599 44.654C83.1599 43.61 82.7732 42.74 81.9999 42.044C81.2652 41.348 79.7766 40.9227 77.5339 40.768C75.9486 40.652 74.4792 40.478 73.1259 40.246C72.0046 40.8647 71.1926 41.5413 70.6899 42.276C70.2259 43.0107 69.9939 43.7647 69.9939 44.538ZM110.467 41.696C107.683 41.696 105.169 41.058 102.927 39.782C100.723 38.506 98.9632 36.7467 97.6486 34.504C96.3726 32.2227 95.7346 29.5933 95.7346 26.616C95.7346 23.6387 96.3919 21.0287 97.7066 18.786C99.0212 16.5047 100.781 14.726 102.985 13.45C105.227 12.174 107.741 11.536 110.525 11.536C113.27 11.536 115.745 12.174 117.949 13.45C120.191 14.726 121.951 16.5047 123.227 18.786C124.541 21.0287 125.199 23.6387 125.199 26.616C125.199 29.5933 124.541 32.2227 123.227 34.504C121.951 36.7467 120.191 38.506 117.949 39.782C115.706 41.058 113.212 41.696 110.467 41.696ZM110.467 35.258C112.4 35.258 114.082 34.5427 115.513 33.112C116.943 31.6427 117.659 29.4773 117.659 26.616C117.659 23.7547 116.943 21.6087 115.513 20.178C114.082 18.7087 112.419 17.974 110.525 17.974C108.553 17.974 106.851 18.7087 105.421 20.178C104.029 21.6087 103.333 23.7547 103.333 26.616C103.333 29.4773 104.029 31.6427 105.421 33.112C106.851 34.5427 108.533 35.258 110.467 35.258Z" fill="white"/>
</svg>
