<svg width="151" height="40" viewBox="0 0 151 40" fill="none" xmlns="http://www.w3.org/2000/svg">
<path d="M0 18.8385C0 10.0886 7.09324 2.99533 15.8432 2.99533V21.1615C15.8432 29.9114 8.74996 37.0047 0 37.0047V18.8385Z" fill="#2E6AE0"/>
<path d="M18.1423 10.9797C18.1423 6.57007 21.7171 2.99533 26.1267 2.99533H27.3761C31.7857 2.99533 35.3605 6.57007 35.3605 10.9797C35.3605 15.3894 31.7857 18.9641 27.3761 18.9641H26.1267C21.7171 18.9641 18.1423 15.3894 18.1423 10.9797Z" fill="#2E6AE0"/>
<path d="M18.1423 29.017C18.1423 24.6074 21.7171 21.0326 26.1267 21.0326H27.3761C31.7857 21.0326 35.3605 24.6074 35.3605 29.017C35.3605 33.4267 31.7857 37.0014 27.3761 37.0014H26.1267C21.7171 37.0014 18.1423 33.4267 18.1423 29.017Z" fill="#2E6AE0"/>
<path d="M55.4904 30L47.8104 9H51.9204L57.8604 26.07L63.8304 9H67.8804L60.2004 30H55.4904ZM72.3569 12.81C71.6569 12.81 71.0769 12.6 70.6169 12.18C70.1769 11.76 69.9569 11.23 69.9569 10.59C69.9569 9.95 70.1769 9.43 70.6169 9.03C71.0769 8.61 71.6569 8.4 72.3569 8.4C73.0569 8.4 73.6269 8.61 74.0669 9.03C74.5269 9.43 74.7569 9.95 74.7569 10.59C74.7569 11.23 74.5269 11.76 74.0669 12.18C73.6269 12.6 73.0569 12.81 72.3569 12.81ZM70.4369 30V15.12H74.2769V30H70.4369ZM85.125 30.36C83.725 30.36 82.475 30.02 81.375 29.34C80.275 28.66 79.405 27.73 78.765 26.55C78.125 25.37 77.805 24.03 77.805 22.53C77.805 21.03 78.125 19.7 78.765 18.54C79.405 17.36 80.275 16.44 81.375 15.78C82.475 15.1 83.725 14.76 85.125 14.76C86.245 14.76 87.225 14.97 88.065 15.39C88.905 15.81 89.585 16.4 90.105 17.16V8.4H93.945V30H90.525L90.105 27.87C89.625 28.53 88.985 29.11 88.185 29.61C87.405 30.11 86.385 30.36 85.125 30.36ZM85.935 27C87.175 27 88.185 26.59 88.965 25.77C89.765 24.93 90.165 23.86 90.165 22.56C90.165 21.26 89.765 20.2 88.965 19.38C88.185 18.54 87.175 18.12 85.935 18.12C84.715 18.12 83.705 18.53 82.905 19.35C82.105 20.17 81.705 21.23 81.705 22.53C81.705 23.83 82.105 24.9 82.905 25.74C83.705 26.58 84.715 27 85.935 27Z" fill="#2E6AE0"/>
<path d="M97.9453 30V9H105.655C107.335 9 108.715 9.29 109.795 9.87C110.895 10.43 111.715 11.2 112.255 12.18C112.795 13.14 113.065 14.21 113.065 15.39C113.065 16.67 112.725 17.84 112.045 18.9C111.385 19.96 110.345 20.73 108.925 21.21L113.275 30H108.865L104.965 21.72H101.785V30H97.9453ZM101.785 18.9H105.415C106.695 18.9 107.635 18.59 108.235 17.97C108.835 17.35 109.135 16.53 109.135 15.51C109.135 14.51 108.835 13.71 108.235 13.11C107.655 12.51 106.705 12.21 105.385 12.21H101.785V18.9ZM122.868 30.36C121.368 30.36 120.038 30.04 118.878 29.4C117.718 28.76 116.808 27.86 116.148 26.7C115.488 25.54 115.158 24.2 115.158 22.68C115.158 21.14 115.478 19.77 116.118 18.57C116.778 17.37 117.678 16.44 118.818 15.78C119.978 15.1 121.338 14.76 122.898 14.76C124.358 14.76 125.648 15.08 126.768 15.72C127.888 16.36 128.758 17.24 129.378 18.36C130.018 19.46 130.338 20.69 130.338 22.05C130.338 22.27 130.328 22.5 130.308 22.74C130.308 22.98 130.298 23.23 130.278 23.49H118.968C119.048 24.65 119.448 25.56 120.168 26.22C120.908 26.88 121.798 27.21 122.838 27.21C123.618 27.21 124.268 27.04 124.788 26.7C125.328 26.34 125.728 25.88 125.988 25.32H129.888C129.608 26.26 129.138 27.12 128.478 27.9C127.838 28.66 127.038 29.26 126.078 29.7C125.138 30.14 124.068 30.36 122.868 30.36ZM122.898 17.88C121.958 17.88 121.128 18.15 120.408 18.69C119.688 19.21 119.228 20.01 119.028 21.09H126.438C126.378 20.11 126.018 19.33 125.358 18.75C124.698 18.17 123.878 17.88 122.898 17.88ZM140.858 30.36C139.338 30.36 137.998 30.03 136.838 29.37C135.678 28.71 134.758 27.79 134.078 26.61C133.418 25.43 133.088 24.08 133.088 22.56C133.088 21.04 133.418 19.69 134.078 18.51C134.758 17.33 135.678 16.41 136.838 15.75C137.998 15.09 139.338 14.76 140.858 14.76C142.758 14.76 144.358 15.26 145.658 16.26C146.958 17.24 147.788 18.6 148.148 20.34H144.098C143.898 19.62 143.498 19.06 142.898 18.66C142.318 18.24 141.628 18.03 140.828 18.03C139.768 18.03 138.868 18.43 138.128 19.23C137.388 20.03 137.018 21.14 137.018 22.56C137.018 23.98 137.388 25.09 138.128 25.89C138.868 26.69 139.768 27.09 140.828 27.09C141.628 27.09 142.318 26.89 142.898 26.49C143.498 26.09 143.898 25.52 144.098 24.78H148.148C147.788 26.46 146.958 27.81 145.658 28.83C144.358 29.85 142.758 30.36 140.858 30.36Z" fill="#1B1B1B"/>
</svg>
